<?xml version="1.0" encoding="UTF-8" standalone="no"?>
<!DOCTYPE svg PUBLIC "-//W3C//DTD SVG 1.1//EN" "http://www.w3.org/Graphics/SVG/1.1/DTD/svg11.dtd">
<svg width="100%" height="100%" viewBox="0 0 200 200" version="1.1" xmlns="http://www.w3.org/2000/svg" xmlns:xlink="http://www.w3.org/1999/xlink" xml:space="preserve" xmlns:serif="http://www.serif.com/" style="fill-rule:evenodd;clip-rule:evenodd;stroke-linejoin:round;stroke-miterlimit:2;">
    <rect id="Artboard1" x="0" y="0" width="200" height="200" style="fill:none;"/>
    <g>
        <g opacity="0.85">
            <path d="M78.505,12.049c14.238,8.22 19.125,26.456 10.901,40.702c-8.224,14.244 -26.461,19.131 -40.699,10.911c-14.237,-8.22 -19.124,-26.458 -10.901,-40.702c8.225,-14.246 26.463,-19.131 40.699,-10.911Zm-10.944,18.956c-3.777,-2.181 -8.615,-0.88 -10.798,2.9c-2.182,3.779 -0.888,8.619 2.889,10.8c3.777,2.181 8.615,0.881 10.798,-2.899c2.182,-3.779 0.889,-8.62 -2.889,-10.801Z" style="fill:#fff;"/>
            <path d="M182.568,73.221c14.237,8.219 19.125,26.456 10.9,40.701c-8.224,14.245 -26.462,19.131 -40.699,10.911c-14.237,-8.22 -19.124,-26.457 -10.9,-40.701c8.225,-14.246 26.461,-19.131 40.699,-10.911Zm-10.944,18.956c-3.778,-2.181 -8.617,-0.881 -10.799,2.899c-2.182,3.78 -0.888,8.619 2.889,10.8c3.778,2.181 8.615,0.881 10.797,-2.898c2.182,-3.78 0.89,-8.62 -2.887,-10.801Z" style="fill:#fff;"/>
            <path d="M80.197,135.953c14.237,8.22 19.123,26.457 10.899,40.701c-8.224,14.246 -26.461,19.131 -40.698,10.912c-14.237,-8.22 -19.125,-26.456 -10.9,-40.702c8.224,-14.244 26.461,-19.131 40.699,-10.911Zm-10.944,18.956c-3.778,-2.181 -8.617,-0.88 -10.799,2.899c-2.182,3.78 -0.889,8.621 2.889,10.802c3.777,2.18 8.615,0.88 10.797,-2.9c2.182,-3.78 0.89,-8.62 -2.887,-10.801Z" style="fill:#fff;"/>
            <path d="M145.583,62.55l-0.002,0.001l-27.943,0.005l-2.102,-0.208l-2.002,-0.608l-1.846,-0.985l-1.634,-1.34l-1.34,-1.635l-0.986,-1.847l-0.608,-2.002l-0.207,-2.101l0.005,-27.941l0.218,-2.154l0.628,-2.024l0.99,-1.825l1.306,-1.582l1.582,-1.306l1.825,-0.99l2.024,-0.628c-0,-0 2.154,-0.218 2.152,-0.218l27.945,-0.008l2.102,0.208l2.001,0.609l1.846,0.985l1.635,1.34l1.34,1.634l0.985,1.847l0.608,2.002l0.208,2.102l-0.005,27.944l-0.219,2.155l-0.628,2.024l-0.991,1.825l-1.306,1.581l-1.582,1.305l-1.824,0.99l-2.023,0.628l-2.152,0.217Zm-10.725,-21.449l0.001,-6.492l-6.491,0.002c0,-0 -0.001,6.491 -0.001,6.491l6.491,-0.001Z" style="fill:#fff;"/>
            <path d="M151.931,187.55l-29.698,0.006l-2.147,-0.212l-2.043,-0.621l-1.883,-1.006l-1.665,-1.365l-1.367,-1.666l-1.007,-1.885l-0.621,-2.044l-0.213,-2.146l0.007,-29.696l0.222,-2.198l0.641,-2.064l1.01,-1.862l1.333,-1.615l1.614,-1.332l1.862,-1.01l2.064,-0.641c0,-0 2.199,-0.222 2.197,-0.222l29.7,-0.008l2.146,0.212l2.042,0.621l1.884,1.006l1.664,1.365l1.368,1.666l1.007,1.885l0.621,2.044l0.213,2.146l-0.008,29.698l-0.222,2.197l-0.641,2.064l-1.01,1.862l-1.331,1.615l-1.615,1.332l-1.862,1.011l-2.065,0.641l-2.197,0.222Zm-10.943,-21.887l0.001,-7.808l-7.808,0.002l-0.002,7.807l7.809,-0.001Z" style="fill:#fff;"/>
            <path d="M42.405,126.734l-29.697,0.005l-2.146,-0.212l-2.044,-0.622l-1.884,-1.006l-1.663,-1.364l-1.368,-1.666l-1.007,-1.885l-0.621,-2.044l-0.212,-2.146l0.006,-29.695l0.223,-2.199l0.641,-2.064l1.01,-1.862l1.332,-1.614l1.615,-1.333l1.862,-1.01l2.064,-0.641c0,0 2.198,-0.222 2.196,-0.222l29.699,-0.008l2.146,0.212l2.043,0.621l1.884,1.006l1.667,1.367l1.367,1.668l1.005,1.883l0.621,2.043l0.212,2.145l-0.007,29.698l-0.222,2.198l-0.641,2.064l-1.01,1.862l-1.332,1.615l-1.615,1.332l-1.862,1.011l-2.064,0.64l-2.198,0.223Zm-10.942,-21.888l0.002,-7.807l-7.808,0.002l-0.002,7.806l7.808,-0.001Z" style="fill:#fff;"/>
            <path d="M145.705,30.639l35.74,61.904c2.52,4.364 2.52,9.74 0,14.104l-35.74,61.904c-2.52,4.364 -7.175,7.052 -12.215,7.052l-71.48,-0c-5.038,-0 -9.695,-2.688 -12.214,-7.052l-35.741,-61.904c-2.519,-4.364 -2.519,-9.74 -0,-14.104l35.74,-61.904c2.52,-4.364 7.177,-7.052 12.215,-7.052l71.48,0c5.04,0 9.696,2.689 12.215,7.052Zm-22.63,36.825c-1.174,-2.034 -3.343,-3.286 -5.691,-3.286l-34.301,-0.001c-2.348,0.001 -4.518,1.253 -5.692,3.286l-16.654,28.846c-1.174,2.033 -1.173,4.539 0,6.572l16.654,28.845c1.175,2.034 3.344,3.286 5.692,3.286l34.301,0c2.348,0 4.517,-1.252 5.691,-3.286l16.654,-28.845c1.174,-2.034 1.174,-4.539 0,-6.572l-16.654,-28.845Z" style="fill:#fff;"/>
        </g>
        <path d="M74.884,18.321c10.777,6.222 14.475,20.026 8.249,30.808c-6.225,10.782 -20.028,14.482 -30.805,8.26c-10.776,-6.221 -14.474,-20.026 -8.249,-30.808c6.225,-10.782 20.029,-14.481 30.805,-8.26Zm-3.702,6.412c-7.237,-4.179 -16.51,-1.692 -20.691,5.55c-4.181,7.243 -1.698,16.515 5.539,20.694c7.239,4.179 16.511,1.693 20.692,-5.549c4.181,-7.243 1.699,-16.516 -5.54,-20.695Z" style="fill:#302043;"/>
        <path d="M73.033,21.527c9.008,5.201 12.097,16.74 6.894,25.751c-5.203,9.012 -16.74,12.106 -25.748,6.905c-9.008,-5.201 -12.097,-16.739 -6.894,-25.751c5.203,-9.011 16.74,-12.105 25.748,-6.905Z" style="fill:#6e5179;"/>
        <path d="M178.947,79.493c10.775,6.222 14.474,20.026 8.249,30.808c-6.225,10.782 -20.029,14.481 -30.805,8.26c-10.777,-6.222 -14.474,-20.026 -8.249,-30.808c6.225,-10.782 20.028,-14.482 30.805,-8.26Zm-3.702,6.411c-7.238,-4.179 -16.511,-1.692 -20.692,5.551c-4.182,7.242 -1.699,16.515 5.54,20.694c7.238,4.179 16.509,1.692 20.691,-5.55c4.181,-7.242 1.7,-16.515 -5.539,-20.695Z" style="fill:#302043;"/>
        <path d="M177.096,82.699c9.007,5.201 12.097,16.739 6.894,25.751c-5.203,9.012 -16.74,12.106 -25.748,6.905c-9.008,-5.201 -12.097,-16.739 -6.894,-25.751c5.202,-9.011 16.74,-12.105 25.748,-6.905Z" style="fill:#6e5179;"/>
        <path d="M76.576,142.226c10.775,6.221 14.475,20.022 8.252,30.8c-6.223,10.778 -20.024,14.474 -30.8,8.253c-10.777,-6.222 -14.476,-20.022 -8.253,-30.801c6.222,-10.777 20.024,-14.474 30.801,-8.252Zm-3.701,6.408c-7.238,-4.179 -16.509,-1.694 -20.689,5.546c-4.18,7.24 -1.696,16.511 5.542,20.69c7.238,4.179 16.509,1.694 20.689,-5.546c4.18,-7.24 1.696,-16.511 -5.542,-20.69Z" style="fill:#302043;"/>
        <path d="M74.725,145.43c9.008,5.201 12.099,16.737 6.898,25.745c-5.201,9.008 -16.737,12.1 -25.745,6.899c-9.007,-5.201 -12.098,-16.737 -6.897,-25.745c5.201,-9.008 16.736,-12.099 25.744,-6.899Z" style="fill:#6e5179;"/>
        <path d="M145.581,55.308l-27.943,0.005c-0.923,0 -1.809,-0.366 -2.463,-1.02c-0.653,-0.653 -1.02,-1.539 -1.02,-2.463l0.006,-27.941c-0,-1.924 1.559,-3.484 3.484,-3.484l27.943,-0.008c0.923,0 1.809,0.367 2.462,1.02c0.654,0.653 1.02,1.54 1.02,2.464l-0.005,27.944c-0,1.923 -1.561,3.483 -3.484,3.483Zm-3.482,-6.965l0.004,-20.979l-20.976,0.006l-0.004,20.976l20.976,-0.003Z" style="fill:#302043;"/>
        <path d="M145.581,51.825l-27.943,0.005l0.007,-27.941l27.943,-0.008l-0.007,27.944Z" style="fill:#6e5179;"/>
        <path d="M151.93,180.308l-29.698,0.005c-0.981,0 -1.923,-0.39 -2.617,-1.084c-0.695,-0.694 -1.085,-1.636 -1.085,-2.618l0.007,-29.696c-0,-2.044 1.657,-3.702 3.702,-3.702l29.698,-0.007c0.981,-0 1.923,0.39 2.617,1.084c0.695,0.694 1.085,1.635 1.085,2.618l-0.008,29.698c0,2.044 -1.657,3.702 -3.701,3.702Zm-3.701,-7.403l0.005,-22.294l-22.294,0.005l-0.005,22.292l22.294,-0.003Z" style="fill:#302043;"/>
        <path d="M151.93,176.606l-29.698,0.005l0.007,-29.696l29.698,-0.007l-0.007,29.698Z" style="fill:#6e5179;"/>
        <path d="M42.404,119.491l-29.696,0.006c-0.983,-0 -1.923,-0.391 -2.618,-1.085c-0.694,-0.694 -1.085,-1.635 -1.085,-2.618l0.007,-29.695c0,-2.045 1.658,-3.702 3.702,-3.702l29.697,-0.008c0.982,-0 1.924,0.39 2.619,1.084c0.693,0.694 1.083,1.636 1.083,2.618l-0.006,29.698c-0,2.044 -1.658,3.702 -3.703,3.702Zm-3.699,-7.403l0.004,-22.294l-22.294,0.006l-0.004,22.291l22.294,-0.003Z" style="fill:#302043;"/>
        <path d="M42.404,115.789l-29.696,0.005l0.006,-29.695l29.697,-0.008l-0.007,29.698Z" style="fill:#6e5179;"/>
        <path d="M89.285,41.391l0,-6.5c-0,-0.626 0.508,-1.133 1.133,-1.133l9.199,0l-0.001,-4.904c0,-0.457 0.276,-0.871 0.699,-1.046c0.423,-0.175 0.911,-0.078 1.235,0.245l9.286,9.286c0.442,0.442 0.442,1.16 0,1.602l-9.286,9.287c-0.325,0.323 -0.812,0.42 -1.234,0.245c-0.423,-0.175 -0.7,-0.588 -0.699,-1.046l-0.001,-4.904l-9.198,-0c-0.626,-0 -1.132,-0.507 -1.133,-1.132Z" style="fill:#271d2b;"/>
        <path d="M143.006,61.954l5.63,-3.25c0.542,-0.313 1.235,-0.127 1.548,0.414l3.171,4.994l4.247,-2.452c0.396,-0.229 0.892,-0.196 1.256,0.082c0.362,0.279 0.522,0.75 0.404,1.192l-3.399,12.685c-0.162,0.604 -0.783,0.963 -1.387,0.801l-12.685,-3.399c-0.443,-0.118 -0.77,-0.492 -0.83,-0.947c-0.06,-0.454 0.16,-0.898 0.556,-1.128l4.247,-2.451l-3.172,-4.994c-0.313,-0.542 -0.127,-1.234 0.414,-1.547Z" style="fill:#271d2b;"/>
        <path d="M91.954,164.104l-0,-6.501c-0.001,-0.625 0.507,-1.133 1.132,-1.132l11.089,-0l-0,-4.905c0,-0.458 0.276,-0.87 0.699,-1.045c0.423,-0.176 0.91,-0.079 1.234,0.245l9.287,9.286c0.442,0.443 0.442,1.159 -0,1.602l-9.287,9.286c-0.324,0.324 -0.811,0.422 -1.234,0.245c-0.423,-0.174 -0.7,-0.587 -0.699,-1.045l-0,-4.905l-11.089,0c-0.626,0.001 -1.132,-0.507 -1.132,-1.131Z" style="fill:#271d2b;"/>
        <path d="M51.019,136.554l-5.63,3.25c-0.542,0.313 -1.234,0.127 -1.547,-0.414l-2.934,-5.083l-4.247,2.452c-0.397,0.229 -0.893,0.196 -1.256,-0.083c-0.362,-0.279 -0.522,-0.748 -0.404,-1.191l3.399,-12.686c0.162,-0.604 0.783,-0.962 1.387,-0.8l12.685,3.399c0.443,0.119 0.77,0.492 0.83,0.946c0.06,0.454 -0.16,0.899 -0.556,1.129l-4.248,2.451l2.935,5.083c0.314,0.541 0.127,1.234 -0.414,1.547Z" style="fill:#271d2b;"/>
        <path d="M45.476,78.751l-5.629,-3.25c-0.542,-0.312 -0.737,-0.989 -0.436,-1.511l2.954,-5.116l-4.247,-2.452c-0.396,-0.229 -0.621,-0.665 -0.57,-1.106c0.053,-0.441 0.371,-0.798 0.808,-0.906l12.514,-3.103c0.596,-0.148 1.217,0.21 1.387,0.801l3.57,12.389c0.125,0.432 -0.026,0.886 -0.382,1.152c-0.356,0.265 -0.845,0.289 -1.242,0.06l-4.247,-2.452l-2.954,5.116c-0.301,0.522 -0.984,0.691 -1.526,0.378Z" style="fill:#271d2b;"/>
        <path d="M148.742,137.95l-5.631,-3.251c-0.541,-0.312 -0.756,-0.954 -0.479,-1.434l3.449,-5.974l-4.247,-2.452c-0.396,-0.229 -0.631,-0.647 -0.595,-1.06c0.035,-0.411 0.334,-0.736 0.758,-0.823l12.152,-2.473c0.578,-0.119 1.199,0.24 1.386,0.8l3.934,11.761c0.136,0.41 0.005,0.832 -0.334,1.068c-0.339,0.237 -0.819,0.242 -1.216,0.013l-4.247,-2.452l-3.449,5.975c-0.277,0.48 -0.94,0.615 -1.481,0.302Z" style="fill:#271d2b;"/>
    </g>
</svg>
