<?xml version="1.0" encoding="UTF-8" standalone="no"?>
<!DOCTYPE svg PUBLIC "-//W3C//DTD SVG 1.1//EN" "http://www.w3.org/Graphics/SVG/1.1/DTD/svg11.dtd">
<svg width="100%" height="100%" viewBox="0 0 558 173" version="1.1" xmlns="http://www.w3.org/2000/svg" xmlns:xlink="http://www.w3.org/1999/xlink" xml:space="preserve" xmlns:serif="http://www.serif.com/" style="fill-rule:evenodd;clip-rule:evenodd;stroke-linejoin:round;stroke-miterlimit:2;">
    <rect id="Artboard1" x="0" y="0" width="558" height="173" style="fill:none;"/>
    <g>
        <g opacity="0.85">
            <path d="M72.481,9.518c12.606,7.277 16.933,23.423 9.651,36.035c-7.281,12.611 -23.427,16.938 -36.033,9.66c-12.604,-7.277 -16.932,-23.424 -9.651,-36.035c7.282,-12.613 23.429,-16.938 36.033,-9.66Zm-9.689,16.782c-3.344,-1.93 -7.628,-0.779 -9.56,2.568c-1.932,3.346 -0.787,7.631 2.557,9.561c3.345,1.931 7.628,0.781 9.56,-2.566c1.932,-3.346 0.787,-7.632 -2.557,-9.563Z" style="fill:#fff;"/>
            <path d="M164.614,63.676c12.604,7.277 16.932,23.423 9.65,36.036c-7.281,12.611 -23.428,16.937 -36.033,9.66c-12.605,-7.278 -16.931,-23.425 -9.65,-36.036c7.281,-12.612 23.427,-16.938 36.033,-9.66Zm-9.69,16.783c-3.345,-1.931 -7.628,-0.78 -9.56,2.567c-1.932,3.346 -0.787,7.631 2.557,9.562c3.345,1.931 7.628,0.78 9.56,-2.566c1.932,-3.347 0.788,-7.632 -2.557,-9.563Z" style="fill:#fff;"/>
            <path d="M73.979,119.217c12.605,7.277 16.931,23.423 9.65,36.034c-7.282,12.613 -23.428,16.938 -36.032,9.661c-12.606,-7.278 -16.933,-23.423 -9.651,-36.035c7.281,-12.612 23.428,-16.938 36.033,-9.66Zm-9.689,16.782c-3.345,-1.931 -7.629,-0.779 -9.561,2.567c-1.932,3.347 -0.787,7.632 2.557,9.563c3.344,1.931 7.628,0.779 9.56,-2.567c1.932,-3.346 0.788,-7.632 -2.556,-9.563Z" style="fill:#fff;"/>
            <path d="M131.869,54.229l-0.002,0l-24.74,0.005l-1.86,-0.184l-1.773,-0.538l-1.634,-0.873l-1.447,-1.186l-1.186,-1.447l-0.873,-1.635l-0.538,-1.773l-0.184,-1.86l0.005,-24.738l0.193,-1.907l0.556,-1.792l0.876,-1.615l1.156,-1.401l1.401,-1.156l1.616,-0.877l1.791,-0.556c0,0 1.907,-0.193 1.906,-0.193l24.741,-0.007l1.861,0.184l1.772,0.539l1.635,0.872l1.447,1.187l1.186,1.447l0.873,1.635l0.538,1.772l0.184,1.861l-0.005,24.741l-0.193,1.908l-0.557,1.791l-0.877,1.616l-1.156,1.4l-1.401,1.155l-1.615,0.877l-1.791,0.555l-1.905,0.193Zm-9.496,-18.99l0.001,-5.748l-5.746,0.002c-0,-0 -0.002,5.747 -0.002,5.747l5.747,-0.001Z" style="fill:#fff;"/>
            <path d="M137.489,164.898l-26.293,0.005l-1.901,-0.188l-1.808,-0.55l-1.668,-0.89l-1.474,-1.208l-1.211,-1.476l-0.891,-1.669l-0.55,-1.809l-0.188,-1.9l0.006,-26.291l0.197,-1.946l0.567,-1.828l0.895,-1.648l1.179,-1.43l1.43,-1.179l1.648,-0.895l1.828,-0.567c-0,-0 1.946,-0.197 1.944,-0.197l26.295,-0.007l1.9,0.188l1.808,0.55l1.668,0.89l1.474,1.209l1.211,1.475l0.891,1.669l0.55,1.81l0.188,1.899l-0.007,26.293l-0.196,1.946l-0.567,1.827l-0.894,1.648l-1.18,1.43l-1.429,1.18l-1.649,0.895l-1.828,0.568l-1.945,0.196Zm-9.689,-19.378l0.002,-6.912l-6.913,0.002l-0.002,6.911l6.913,-0.001Z" style="fill:#fff;"/>
            <path d="M40.52,111.054l-26.292,0.005l-1.901,-0.188l-1.809,-0.55l-1.668,-0.891l-1.473,-1.208l-1.211,-1.475l-0.891,-1.669l-0.55,-1.809l-0.188,-1.9l0.006,-26.291l0.197,-1.946l0.567,-1.828l0.895,-1.649l1.179,-1.429l1.43,-1.18l1.648,-0.894l1.828,-0.568c-0,0 1.946,-0.196 1.944,-0.196l26.294,-0.007l1.9,0.188l1.809,0.549l1.668,0.891l1.476,1.21l1.21,1.477l0.89,1.667l0.549,1.809l0.188,1.899l-0.006,26.293l-0.196,1.946l-0.568,1.828l-0.894,1.648l-1.18,1.43l-1.429,1.179l-1.649,0.895l-1.827,0.567l-1.946,0.197Zm-9.687,-19.378l0.001,-6.913l-6.913,0.002l-0.002,6.912l6.914,-0.001Z" style="fill:#fff;"/>
            <path d="M131.976,25.976l31.644,54.807c2.231,3.864 2.23,8.624 -0,12.487l-31.643,54.807c-2.231,3.864 -6.353,6.244 -10.814,6.244l-63.286,-0.001c-4.461,0.001 -8.583,-2.379 -10.814,-6.243l-31.643,-54.807c-2.23,-3.863 -2.23,-8.623 0,-12.487l31.643,-54.807c2.231,-3.863 6.353,-6.243 10.814,-6.243l63.286,-0c4.461,0 8.583,2.38 10.813,6.243Zm-20.035,32.603c-1.039,-1.8 -2.96,-2.909 -5.039,-2.909l-30.368,-0c-2.079,-0 -4,1.109 -5.039,2.909l-14.745,25.538c-1.039,1.801 -1.039,4.019 0,5.819l14.745,25.538c1.04,1.8 2.961,2.909 5.039,2.909l30.369,0.001c2.078,-0 3.999,-1.11 5.038,-2.91l14.745,-25.538c1.039,-1.8 1.04,-4.018 0,-5.819l-14.745,-25.538Z" style="fill:#fff;"/>
        </g>
        <path d="M69.275,15.071c9.541,5.509 12.815,17.729 7.304,27.276c-5.511,9.545 -17.732,12.821 -27.274,7.313c-9.54,-5.508 -12.814,-17.731 -7.303,-27.276c5.511,-9.547 17.733,-12.821 27.273,-7.313Zm-3.277,5.676c-6.408,-3.699 -14.617,-1.498 -18.319,4.914c-3.702,6.413 -1.504,14.622 4.904,18.322c6.409,3.7 14.617,1.499 18.319,-4.913c3.702,-6.412 1.505,-14.623 -4.904,-18.323Z" style="fill:#302043;"/>
        <path d="M67.636,17.909c7.975,4.605 10.71,14.821 6.104,22.799c-4.606,7.978 -14.821,10.718 -22.796,6.113c-7.975,-4.604 -10.71,-14.82 -6.104,-22.798c4.607,-7.979 14.821,-10.718 22.796,-6.114Z" style="fill:#6e5179;"/>
        <path d="M161.407,69.23c9.541,5.508 12.815,17.729 7.304,27.275c-5.511,9.546 -17.733,12.822 -27.273,7.313c-9.542,-5.508 -12.815,-17.73 -7.304,-27.275c5.512,-9.547 17.732,-12.822 27.273,-7.313Zm-3.277,5.676c-6.408,-3.7 -14.618,-1.498 -18.32,4.914c-3.702,6.412 -1.504,14.621 4.905,18.321c6.409,3.7 14.617,1.499 18.319,-4.913c3.702,-6.412 1.505,-14.622 -4.904,-18.322Z" style="fill:#302043;"/>
        <path d="M159.769,72.068c7.975,4.605 10.71,14.82 6.103,22.799c-4.606,7.978 -14.821,10.717 -22.796,6.113c-7.975,-4.605 -10.71,-14.82 -6.103,-22.799c4.606,-7.978 14.82,-10.717 22.796,-6.113Z" style="fill:#6e5179;"/>
        <path d="M70.773,124.77c9.54,5.508 12.815,17.727 7.306,27.269c-5.509,9.543 -17.728,12.815 -27.269,7.307c-9.541,-5.509 -12.816,-17.727 -7.307,-27.27c5.509,-9.542 17.729,-12.815 27.27,-7.306Zm-3.276,5.674c-6.409,-3.7 -14.617,-1.5 -18.318,4.91c-3.7,6.409 -1.501,14.618 4.907,18.318c6.408,3.699 14.616,1.499 18.317,-4.91c3.701,-6.41 1.502,-14.618 -4.906,-18.318Z" style="fill:#302043;"/>
        <path d="M69.135,127.607c7.975,4.605 10.711,14.818 6.107,22.793c-4.605,7.976 -14.818,10.713 -22.793,6.108c-7.976,-4.604 -10.712,-14.817 -6.107,-22.793c4.604,-7.975 14.818,-10.712 22.793,-6.108Z" style="fill:#6e5179;"/>
        <path d="M131.867,47.817l-24.74,0.005c-0.817,-0 -1.601,-0.325 -2.18,-0.903c-0.578,-0.579 -0.903,-1.363 -0.903,-2.181l0.005,-24.738c0,-1.704 1.381,-3.084 3.084,-3.084l24.74,-0.007c0.817,-0 1.602,0.324 2.18,0.903c0.579,0.578 0.903,1.363 0.903,2.181l-0.005,24.741c0,1.702 -1.381,3.083 -3.084,3.083Zm-3.083,-6.166l0.004,-18.574l-18.571,0.005l-0.004,18.571l18.571,-0.002Z" style="fill:#302043;"/>
        <path d="M131.867,44.734l-24.74,0.004l0.006,-24.738l24.74,-0.007l-0.006,24.741Z" style="fill:#6e5179;"/>
        <path d="M137.488,158.486l-26.293,0.005c-0.869,-0 -1.703,-0.345 -2.317,-0.96c-0.615,-0.614 -0.961,-1.448 -0.961,-2.318l0.006,-26.291c0,-1.81 1.468,-3.278 3.278,-3.278l26.293,-0.007c0.869,0 1.703,0.346 2.317,0.961c0.615,0.614 0.961,1.448 0.961,2.317l-0.007,26.293c-0,1.81 -1.467,3.278 -3.277,3.278Zm-3.277,-6.554l0.004,-19.738l-19.737,0.005l-0.004,19.736l19.737,-0.003Z" style="fill:#302043;"/>
        <path d="M137.488,155.208l-26.293,0.005l0.006,-26.291l26.293,-0.007l-0.006,26.293Z" style="fill:#6e5179;"/>
        <path d="M40.519,104.642l-26.292,0.005c-0.869,-0 -1.702,-0.346 -2.317,-0.961c-0.615,-0.614 -0.961,-1.448 -0.961,-2.317l0.006,-26.291c0,-1.81 1.468,-3.278 3.278,-3.278l26.292,-0.007c0.87,0 1.704,0.346 2.319,0.96c0.613,0.614 0.959,1.448 0.959,2.318l-0.006,26.293c-0,1.81 -1.468,3.278 -3.278,3.278Zm-3.275,-6.555l0.004,-19.738l-19.738,0.005l-0.004,19.736l19.738,-0.003Z" style="fill:#302043;"/>
        <path d="M40.519,101.364l-26.292,0.005l0.006,-26.291l26.292,-0.007l-0.006,26.293Z" style="fill:#6e5179;"/>
        <path d="M82.025,35.495l0,-5.754c0,-0.554 0.45,-1.004 1.003,-1.003l8.144,-0l0,-4.342c0,-0.405 0.244,-0.771 0.619,-0.926c0.375,-0.155 0.806,-0.069 1.093,0.217l8.221,8.221c0.392,0.392 0.392,1.028 0.001,1.418l-8.222,8.223c-0.287,0.286 -0.719,0.372 -1.093,0.217c-0.374,-0.155 -0.619,-0.521 -0.619,-0.926l0,-4.342l-8.144,-0c-0.554,-0 -1.002,-0.449 -1.003,-1.003Z" style="fill:#271d2b;"/>
        <path d="M129.588,53.701l4.984,-2.877c0.48,-0.277 1.093,-0.112 1.37,0.367l2.808,4.421l3.76,-2.171c0.351,-0.202 0.79,-0.173 1.111,0.073c0.322,0.247 0.463,0.663 0.359,1.055l-3.01,11.231c-0.143,0.535 -0.693,0.852 -1.228,0.708l-11.231,-3.009c-0.392,-0.104 -0.681,-0.436 -0.734,-0.838c-0.053,-0.402 0.141,-0.795 0.492,-0.999l3.76,-2.17l-2.808,-4.421c-0.277,-0.48 -0.113,-1.093 0.367,-1.37Z" style="fill:#271d2b;"/>
        <path d="M84.388,144.14l0,-5.756c-0.001,-0.553 0.449,-1.003 1.003,-1.002l9.817,-0l-0,-4.342c0,-0.406 0.244,-0.771 0.619,-0.926c0.374,-0.155 0.805,-0.069 1.092,0.217l8.223,8.222c0.391,0.391 0.391,1.026 -0.001,1.418l-8.221,8.222c-0.288,0.286 -0.718,0.373 -1.093,0.217c-0.375,-0.155 -0.619,-0.521 -0.619,-0.926l-0,-4.342l-9.818,-0c-0.554,-0 -1.002,-0.449 -1.002,-1.002Z" style="fill:#271d2b;"/>
        <path d="M48.146,119.749l-4.984,2.877c-0.48,0.277 -1.093,0.112 -1.37,-0.367l-2.597,-4.5l-3.761,2.171c-0.351,0.203 -0.79,0.174 -1.111,-0.073c-0.321,-0.247 -0.463,-0.663 -0.359,-1.055l3.01,-11.231c0.143,-0.535 0.694,-0.852 1.228,-0.709l11.231,3.01c0.391,0.105 0.682,0.435 0.734,0.837c0.053,0.402 -0.141,0.796 -0.492,0.999l-3.761,2.171l2.599,4.5c0.277,0.479 0.112,1.093 -0.367,1.37Z" style="fill:#271d2b;"/>
        <path d="M43.239,68.573l-4.984,-2.878c-0.48,-0.276 -0.652,-0.875 -0.386,-1.337l2.616,-4.53l-3.76,-2.171c-0.352,-0.202 -0.551,-0.588 -0.505,-0.979c0.046,-0.391 0.328,-0.707 0.715,-0.803l11.079,-2.747c0.528,-0.131 1.078,0.187 1.229,0.709l3.16,10.969c0.11,0.383 -0.023,0.784 -0.338,1.02c-0.315,0.235 -0.749,0.256 -1.1,0.053l-3.76,-2.171l-2.615,4.53c-0.267,0.462 -0.872,0.612 -1.351,0.335Z" style="fill:#271d2b;"/>
        <path d="M134.665,120.984l-4.984,-2.877c-0.48,-0.277 -0.67,-0.845 -0.425,-1.27l3.054,-5.29l-3.76,-2.171c-0.351,-0.202 -0.559,-0.573 -0.528,-0.937c0.032,-0.365 0.297,-0.652 0.672,-0.729l10.758,-2.19c0.512,-0.105 1.062,0.212 1.228,0.708l3.483,10.413c0.12,0.363 0.004,0.736 -0.296,0.946c-0.3,0.209 -0.725,0.214 -1.077,0.011l-3.76,-2.171l-3.053,5.29c-0.246,0.425 -0.832,0.544 -1.312,0.267Z" style="fill:#271d2b;"/>
    </g>
    <path d="M198.43,109.421l0,-5.14l6.881,-1.824l-0.995,1.576l0,-33.16l1.161,1.741l-7.047,-1.907l0,-5.14l13.596,-0.663l1.326,7.958l-1.326,-0.331c2.487,-2.598 4.919,-4.587 7.295,-5.969c2.432,-1.437 5.057,-2.155 7.875,-2.155c1.769,0 3.62,0.276 5.555,0.829l-0.664,13.927l-5.885,0l-1.078,-8.539l0.912,1.99c-0.332,-0.111 -0.691,-0.194 -1.078,-0.249c-0.387,-0.055 -0.774,-0.083 -1.16,-0.083c-1.88,0 -3.731,0.58 -5.555,1.741c-1.768,1.105 -3.371,2.57 -4.808,4.394l0.829,-2.736l0,28.352l-1.243,-1.576l8.455,1.824l0,5.14l-23.046,0Z" style="fill-rule:nonzero;"/>
    <path d="M254.305,110.333c-3.869,0 -7.296,-0.829 -10.28,-2.487c-2.984,-1.713 -5.306,-4.228 -6.964,-7.544c-1.658,-3.316 -2.487,-7.378 -2.487,-12.186c0,-4.919 0.857,-9.147 2.57,-12.684c1.769,-3.537 4.228,-6.245 7.378,-8.124c3.206,-1.934 6.992,-2.901 11.358,-2.901c4.145,0 7.516,0.856 10.113,2.569c2.653,1.658 4.615,3.952 5.886,6.881c1.271,2.929 1.907,6.245 1.907,9.948c0,0.829 -0.028,1.658 -0.083,2.487c-0.055,0.829 -0.166,1.741 -0.332,2.736l-30.838,0l0,-6.301l22.134,0l-1.161,0.746c0.056,-2.21 -0.193,-4.2 -0.746,-5.968c-0.497,-1.769 -1.381,-3.178 -2.652,-4.228c-1.272,-1.05 -2.957,-1.575 -5.057,-1.575c-2.377,0 -4.339,0.663 -5.886,1.989c-1.492,1.327 -2.598,3.123 -3.316,5.389c-0.663,2.266 -0.995,4.836 -0.995,7.709c-0,3.151 0.415,5.942 1.244,8.373c0.828,2.377 2.127,4.256 3.896,5.637c1.768,1.382 4.007,2.073 6.715,2.073c1.934,0 4.034,-0.359 6.3,-1.078c2.266,-0.718 4.615,-1.824 7.046,-3.316l3.399,5.389c-3.15,2.155 -6.355,3.785 -9.616,4.891c-3.261,1.05 -6.439,1.575 -9.533,1.575Z" style="fill-rule:nonzero;"/>
    <path d="M279.589,109.421l0,-5.14l7.129,-1.906l-1.243,1.492l0,-32.911l1.243,1.658l-7.129,-1.907l0,-5.14l13.595,-0.663l1.327,8.041l-1.327,-0.497c2.708,-2.763 5.555,-4.781 8.539,-6.052c2.984,-1.326 5.831,-1.989 8.539,-1.989c3.703,0 6.77,1.16 9.202,3.481c2.487,2.322 3.702,5.831 3.647,10.529l0,25.45l-0.995,-1.492l6.881,1.906l0,5.14l-21.222,0l0,-5.14l6.632,-1.741l-1.244,1.575l0,-23.543c0,-2.929 -0.663,-5.085 -1.989,-6.466c-1.272,-1.382 -2.985,-2.073 -5.14,-2.073c-1.658,0 -3.482,0.47 -5.472,1.41c-1.989,0.884 -3.951,2.266 -5.885,4.145l0.746,-1.575l0,28.102l-0.995,-1.575l6.383,1.741l0,5.14l-21.222,0Z" style="fill-rule:nonzero;"/>
    <path d="M352.789,110.333c-3.868,0 -7.295,-0.829 -10.279,-2.487c-2.985,-1.713 -5.306,-4.228 -6.964,-7.544c-1.658,-3.316 -2.487,-7.378 -2.487,-12.186c0,-4.919 0.857,-9.147 2.57,-12.684c1.769,-3.537 4.228,-6.245 7.378,-8.124c3.205,-1.934 6.991,-2.901 11.357,-2.901c4.145,0 7.516,0.856 10.114,2.569c2.653,1.658 4.615,3.952 5.886,6.881c1.271,2.929 1.907,6.245 1.907,9.948c-0,0.829 -0.028,1.658 -0.083,2.487c-0.056,0.829 -0.166,1.741 -0.332,2.736l-30.839,0l-0,-6.301l22.135,0l-1.161,0.746c0.055,-2.21 -0.193,-4.2 -0.746,-5.968c-0.497,-1.769 -1.382,-3.178 -2.653,-4.228c-1.271,-1.05 -2.957,-1.575 -5.057,-1.575c-2.376,0 -4.338,0.663 -5.886,1.989c-1.492,1.327 -2.597,3.123 -3.316,5.389c-0.663,2.266 -0.994,4.836 -0.994,7.709c-0,3.151 0.414,5.942 1.243,8.373c0.829,2.377 2.128,4.256 3.896,5.637c1.769,1.382 4.007,2.073 6.715,2.073c1.935,0 4.035,-0.359 6.301,-1.078c2.266,-0.718 4.614,-1.824 7.046,-3.316l3.399,5.389c-3.15,2.155 -6.356,3.785 -9.616,4.891c-3.261,1.05 -6.439,1.575 -9.534,1.575Z" style="fill-rule:nonzero;"/>
    <path d="M424.414,65.65l17.326,-0.663l0,5.14l-5.305,1.575l1.326,-1.161l-10.777,39.046l-10.777,0l-9.533,-36.808l1.907,0.083l-10.529,36.725l-10.777,0l-10.196,-38.631l1.16,0.994l-5.222,-1.16l0,-5.14l18.984,-0.663l0,5.14l-6.549,1.575l1.077,-0.912l7.71,32.828l-1.658,0l10.279,-38.051l10.363,-0.663l9.616,39.046l-1.492,0l8.29,-32.911l0.995,0.994l-6.218,-1.243l0,-5.14Z" style="fill-rule:nonzero;"/>
    <path d="M481.532,94.499l6.052,0l-0.083,14.922l-42.776,0l0,-5.14l7.875,-2.072l-1.409,2.072l0,-47.667l1.409,2.073l-7.875,-1.907l0,-5.14l16.497,-0.414l25.367,0l0,14.341l-6.135,0l-1.575,-8.456l1.99,1.493l-21.139,0l1.658,-1.658l0,20.89l-1.658,-1.658l20.476,0l0,7.13l-20.476,0l1.658,-1.824l0,22.217l-1.658,-1.658l22.134,0l-1.99,1.658l1.658,-9.202Z" style="fill-rule:nonzero;"/>
    <path d="M490.568,109.421l0,-5.14l6.964,-1.492l-2.487,1.409l13.181,-18.403l2.238,-0.332l13.347,-19.813l10.694,-0.663l0,5.14l-7.047,1.741l2.902,-1.658l-12.767,17.491l-2.155,0.249l-14.176,21.471l-10.694,0Zm24.041,-0l0,-5.14l5.637,-0.995l-0.58,1.327l-10.86,-15.502l-13.43,-18.819l2.073,1.741l-5.886,-1.243l0,-5.14l19.564,-0.663l0,5.14l-5.803,1.243l0.746,-1.575l9.7,14.093l14.673,20.31l-1.824,-1.409l6.798,1.492l0,5.14l-20.808,-0Z" style="fill-rule:nonzero;"/>
</svg>
