<?xml version="1.0" encoding="UTF-8" standalone="no"?>
<!DOCTYPE svg PUBLIC "-//W3C//DTD SVG 1.1//EN" "http://www.w3.org/Graphics/SVG/1.1/DTD/svg11.dtd">
<svg width="100%" height="100%" viewBox="0 0 558 173" version="1.1" xmlns="http://www.w3.org/2000/svg" xmlns:xlink="http://www.w3.org/1999/xlink" xml:space="preserve" xmlns:serif="http://www.serif.com/" style="fill-rule:evenodd;clip-rule:evenodd;stroke-linejoin:round;stroke-miterlimit:2;">
    <rect id="Artboard1" x="0" y="0" width="558" height="173" style="fill:none;"/>
    <g>
        <path d="M81.802,22.92l55.532,32.061l-0,64.123l-55.532,32.061l-55.532,-32.061l0,-64.123l55.532,-32.061Z" style="fill:#fff;"/>
        <path d="M88.128,11.963l55.532,32.061c3.915,2.26 6.326,6.437 6.326,10.957l0,64.123c0,4.52 -2.411,8.697 -6.326,10.957l-55.532,32.061c-3.914,2.26 -8.737,2.26 -12.652,0l-55.532,-32.061c-3.914,-2.26 -6.326,-6.437 -6.326,-10.957l0,-64.123c0,-4.52 2.412,-8.697 6.326,-10.957l55.532,-32.061c3.915,-2.26 8.738,-2.26 12.652,-0Zm-6.326,25.567c0,-0 -42.879,24.756 -42.879,24.756c-0,0 -0,49.513 -0,49.513c-0,0 42.879,24.756 42.879,24.756c0,0 42.88,-24.756 42.879,-24.756c0,0 0,-49.513 0,-49.513l-42.879,-24.756Z" style="fill:#c6c0c8;"/>
        <path d="M27.584,34.159c11.163,-0 20.227,9.065 20.227,20.234c0,11.168 -9.064,20.234 -20.227,20.234c-11.162,-0 -20.227,-9.066 -20.227,-20.234c0,-11.169 9.065,-20.234 20.227,-20.234Zm0,6.641c-7.497,-0 -13.585,6.091 -13.585,13.593c-0,7.502 6.088,13.592 13.585,13.592c7.498,0 13.586,-6.09 13.586,-13.592c-0,-7.502 -6.088,-13.593 -13.586,-13.593Z" style="fill:#302043;"/>
        <ellipse cx="27.584" cy="54.393" rx="16.906" ry="16.913" style="fill:#6e5179;"/>
        <path d="M137.334,34.159c11.162,-0 20.227,9.065 20.227,20.234c-0,11.168 -9.065,20.234 -20.227,20.234c-11.163,-0 -20.227,-9.066 -20.227,-20.234c-0,-11.169 9.064,-20.234 20.227,-20.234Zm-0,6.641c-7.498,-0 -13.586,6.091 -13.586,13.593c0,7.502 6.088,13.592 13.586,13.592c7.498,0 13.585,-6.09 13.585,-13.592c0,-7.502 -6.087,-13.593 -13.585,-13.593Z" style="fill:#302043;"/>
        <ellipse cx="137.334" cy="54.393" rx="16.906" ry="16.913" style="fill:#6e5179;"/>
        <path d="M82.195,125.713c11.162,-0 20.226,9.066 20.226,20.234c0,11.169 -9.064,20.234 -20.226,20.234c-11.163,0 -20.227,-9.065 -20.227,-20.234c-0,-11.168 9.064,-20.234 20.227,-20.234Zm-0,6.641c-7.498,0 -13.586,6.091 -13.586,13.593c0,7.502 6.088,13.593 13.586,13.593c7.497,-0 13.585,-6.091 13.585,-13.593c0,-7.502 -6.088,-13.593 -13.585,-13.593Z" style="fill:#302043;"/>
        <ellipse cx="82.195" cy="145.947" rx="16.906" ry="16.913" style="fill:#6e5179;"/>
        <path d="M94.17,41.663l-25.067,0.005c-0.828,-0 -1.623,-0.329 -2.209,-0.915c-0.586,-0.586 -0.915,-1.381 -0.915,-2.21l0.005,-25.065c0,-1.726 1.399,-3.125 3.125,-3.125l25.067,-0.007c0.828,0 1.623,0.329 2.209,0.915c0.586,0.586 0.915,1.381 0.915,2.21l-0.005,25.068c-0,1.725 -1.4,3.124 -3.125,3.124Zm-3.124,-6.248l0.004,-18.819l-18.817,0.005l-0.004,18.817l18.817,-0.003Z" style="fill:#302043;"/>
        <path d="M94.17,38.539l-25.067,0.004l0.006,-25.065l25.067,-0.007l-0.006,25.068Z" style="fill:#6e5179;"/>
        <path d="M151.839,134.743l-26.641,0.005c-0.88,0 -1.725,-0.35 -2.348,-0.973c-0.623,-0.622 -0.973,-1.467 -0.973,-2.348l0.006,-26.639c0,-1.834 1.487,-3.321 3.321,-3.321l26.641,-0.007c0.88,-0 1.725,0.35 2.348,0.973c0.623,0.622 0.973,1.467 0.973,2.348l-0.007,26.641c0,1.834 -1.486,3.321 -3.32,3.321Zm-3.32,-6.641l0.004,-19.999l-19.999,0.005l-0.004,19.997l19.999,-0.003Z" style="fill:#302043;"/>
        <path d="M151.839,131.422l-26.641,0.005l0.006,-26.639l26.641,-0.007l-0.006,26.641Z" style="fill:#6e5179;"/>
        <path d="M40.346,134.743l-26.64,0.005c-0.881,0 -1.725,-0.35 -2.348,-0.973c-0.623,-0.622 -0.973,-1.467 -0.973,-2.348l0.006,-26.639c0,-1.834 1.487,-3.321 3.321,-3.321l26.64,-0.007c0.881,-0 1.726,0.35 2.349,0.973c0.622,0.622 0.972,1.467 0.972,2.348l-0.006,26.641c0,1.834 -1.487,3.321 -3.321,3.321Zm-3.319,-6.641l0.004,-19.999l-19.999,0.005l-0.004,19.997l19.999,-0.003Z" style="fill:#302043;"/>
        <path d="M40.346,131.422l-26.64,0.005l0.006,-26.639l26.64,-0.007l-0.006,26.641Z" style="fill:#6e5179;"/>
        <path d="M49.119,45.622l-2.915,-5.05c-0.281,-0.486 -0.114,-1.108 0.372,-1.388l6.412,-3.702l-2.2,-3.81c-0.205,-0.355 -0.176,-0.8 0.074,-1.126c0.25,-0.326 0.672,-0.469 1.069,-0.363l11.379,3.049c0.542,0.145 0.864,0.703 0.719,1.244l-3.049,11.38c-0.107,0.397 -0.442,0.691 -0.849,0.744c-0.407,0.054 -0.807,-0.143 -1.012,-0.499c-0,-0 -2.2,-3.81 -2.2,-3.81l-6.412,3.702c-0.486,0.281 -1.107,0.114 -1.388,-0.371Z" style="fill:#271d2b;"/>
        <path d="M100.054,36.641l2.916,-5.05c0.281,-0.486 0.902,-0.652 1.388,-0.372l7.355,4.247l2.2,-3.81c0.205,-0.355 0.605,-0.552 1.012,-0.499c0.407,0.054 0.742,0.348 0.849,0.744l3.049,11.38c0.145,0.542 -0.177,1.099 -0.719,1.244l-11.379,3.049c-0.397,0.107 -0.819,-0.037 -1.069,-0.363c-0.25,-0.326 -0.279,-0.77 -0.074,-1.126c0,0 2.2,-3.809 2.2,-3.809l-7.356,-4.247c-0.486,-0.281 -0.652,-0.902 -0.372,-1.388Z" style="fill:#271d2b;"/>
        <path d="M104.765,140.606l-2.916,-5.051c-0.281,-0.485 -0.114,-1.107 0.372,-1.387l6.412,-3.702l-2.2,-3.81c-0.205,-0.356 -0.176,-0.8 0.074,-1.126c0.25,-0.326 0.672,-0.469 1.069,-0.363l11.38,3.049c0.542,0.145 0.863,0.702 0.718,1.244l-3.049,11.38c-0.107,0.397 -0.441,0.691 -0.849,0.744c-0.407,0.054 -0.807,-0.143 -1.012,-0.499c-0,-0 -2.2,-3.81 -2.2,-3.81l-6.412,3.702c-0.486,0.281 -1.107,0.114 -1.387,-0.371Z" style="fill:#271d2b;"/>
        <path d="M62.075,136.716l-2.916,5.05c-0.281,0.486 -0.902,0.652 -1.388,0.372l-4.559,-2.633l-2.2,3.81c-0.205,0.356 -0.605,0.553 -1.012,0.499c-0.407,-0.054 -0.742,-0.347 -0.849,-0.744l-3.049,-11.38c-0.145,-0.542 0.177,-1.099 0.719,-1.244l11.379,-3.049c0.397,-0.106 0.819,0.037 1.069,0.363c0.25,0.326 0.279,0.77 0.074,1.126l-2.2,3.81l4.56,2.632c0.486,0.28 0.652,0.902 0.372,1.388Z" style="fill:#271d2b;"/>
        <path d="M29.216,98.541l-5.831,-0c-0.561,-0 -1.016,-0.455 -1.016,-1.016l-0,-9.567l-4.399,0c-0.411,0 -0.781,-0.247 -0.939,-0.627c-0.157,-0.38 -0.07,-0.816 0.221,-1.107l8.33,-8.33c0.397,-0.397 1.04,-0.397 1.437,-0l8.33,8.33c0.291,0.291 0.377,0.727 0.22,1.107c-0.157,0.38 -0.527,0.627 -0.938,0.627l-4.399,0l-0,9.567c-0,0.561 -0.455,1.016 -1.016,1.016Z" style="fill:#271d2b;"/>
        <path d="M140.512,99.466l-5.832,0c-0.561,0 -1.016,-0.454 -1.016,-1.016l0,-11.417l-4.399,-0c-0.41,-0 -0.781,-0.248 -0.938,-0.628c-0.157,-0.379 -0.07,-0.816 0.22,-1.107l8.331,-8.33c0.396,-0.397 1.039,-0.397 1.436,-0l8.331,8.33c0.29,0.291 0.377,0.728 0.22,1.107c-0.157,0.38 -0.528,0.628 -0.939,0.628c0,-0 -4.399,-0 -4.399,-0l0,11.417c0,0.562 -0.454,1.016 -1.015,1.016Z" style="fill:#271d2b;"/>
    </g>
    <path d="M190.43,109.421l0,-5.14l6.881,-1.824l-0.995,1.576l0,-33.16l1.161,1.741l-7.047,-1.907l0,-5.14l13.596,-0.663l1.326,7.958l-1.326,-0.331c2.487,-2.598 4.919,-4.587 7.295,-5.969c2.432,-1.437 5.057,-2.155 7.875,-2.155c1.769,-0 3.62,0.276 5.555,0.829l-0.664,13.927l-5.885,-0l-1.078,-8.539l0.912,1.99c-0.332,-0.111 -0.691,-0.194 -1.078,-0.249c-0.387,-0.055 -0.774,-0.083 -1.16,-0.083c-1.88,0 -3.731,0.58 -5.555,1.741c-1.768,1.105 -3.371,2.57 -4.808,4.394l0.829,-2.736l0,28.352l-1.243,-1.576l8.455,1.824l0,5.14l-23.046,0Z" style="fill-rule:nonzero;"/>
    <path d="M246.305,110.333c-3.869,-0 -7.296,-0.829 -10.28,-2.487c-2.984,-1.713 -5.306,-4.228 -6.964,-7.544c-1.658,-3.316 -2.487,-7.378 -2.487,-12.186c0,-4.919 0.857,-9.147 2.57,-12.684c1.769,-3.537 4.228,-6.245 7.378,-8.124c3.206,-1.934 6.992,-2.901 11.358,-2.901c4.145,-0 7.516,0.856 10.113,2.569c2.653,1.658 4.615,3.952 5.886,6.881c1.271,2.929 1.907,6.245 1.907,9.948c-0,0.829 -0.028,1.658 -0.083,2.487c-0.055,0.829 -0.166,1.741 -0.332,2.736l-30.838,-0l-0,-6.301l22.134,0l-1.161,0.746c0.056,-2.21 -0.193,-4.2 -0.746,-5.968c-0.497,-1.769 -1.381,-3.178 -2.652,-4.228c-1.272,-1.05 -2.957,-1.575 -5.057,-1.575c-2.377,-0 -4.339,0.663 -5.886,1.989c-1.492,1.327 -2.598,3.123 -3.316,5.389c-0.663,2.266 -0.995,4.836 -0.995,7.709c0,3.151 0.415,5.942 1.244,8.373c0.828,2.377 2.127,4.256 3.896,5.637c1.768,1.382 4.007,2.073 6.715,2.073c1.934,-0 4.034,-0.359 6.3,-1.078c2.266,-0.718 4.615,-1.824 7.046,-3.316l3.399,5.389c-3.15,2.155 -6.355,3.785 -9.616,4.891c-3.261,1.05 -6.439,1.575 -9.533,1.575Z" style="fill-rule:nonzero;"/>
    <path d="M271.589,109.421l-0,-5.14l7.129,-1.906l-1.243,1.492l-0,-32.911l1.243,1.658l-7.129,-1.907l-0,-5.14l13.595,-0.663l1.327,8.041l-1.327,-0.497c2.708,-2.763 5.555,-4.781 8.539,-6.052c2.984,-1.326 5.831,-1.989 8.539,-1.989c3.703,-0 6.77,1.16 9.202,3.481c2.487,2.322 3.702,5.831 3.647,10.529l0,25.45l-0.995,-1.492l6.881,1.906l0,5.14l-21.222,0l-0,-5.14l6.632,-1.741l-1.244,1.575l0,-23.543c0,-2.929 -0.663,-5.085 -1.989,-6.466c-1.272,-1.382 -2.985,-2.073 -5.14,-2.073c-1.658,0 -3.482,0.47 -5.472,1.41c-1.989,0.884 -3.951,2.266 -5.885,4.145l0.746,-1.575l-0,28.102l-0.995,-1.575l6.383,1.741l0,5.14l-21.222,0Z" style="fill-rule:nonzero;"/>
    <path d="M344.789,110.333c-3.868,-0 -7.295,-0.829 -10.279,-2.487c-2.985,-1.713 -5.306,-4.228 -6.964,-7.544c-1.658,-3.316 -2.487,-7.378 -2.487,-12.186c0,-4.919 0.857,-9.147 2.57,-12.684c1.769,-3.537 4.228,-6.245 7.378,-8.124c3.205,-1.934 6.991,-2.901 11.357,-2.901c4.145,-0 7.516,0.856 10.114,2.569c2.653,1.658 4.615,3.952 5.886,6.881c1.271,2.929 1.907,6.245 1.907,9.948c-0,0.829 -0.028,1.658 -0.083,2.487c-0.056,0.829 -0.166,1.741 -0.332,2.736l-30.839,-0l0,-6.301l22.135,0l-1.161,0.746c0.055,-2.21 -0.193,-4.2 -0.746,-5.968c-0.497,-1.769 -1.382,-3.178 -2.653,-4.228c-1.271,-1.05 -2.957,-1.575 -5.057,-1.575c-2.376,-0 -4.338,0.663 -5.886,1.989c-1.492,1.327 -2.597,3.123 -3.316,5.389c-0.663,2.266 -0.994,4.836 -0.994,7.709c-0,3.151 0.414,5.942 1.243,8.373c0.829,2.377 2.128,4.256 3.896,5.637c1.769,1.382 4.007,2.073 6.715,2.073c1.935,-0 4.035,-0.359 6.301,-1.078c2.266,-0.718 4.614,-1.824 7.046,-3.316l3.399,5.389c-3.15,2.155 -6.356,3.785 -9.616,4.891c-3.261,1.05 -6.439,1.575 -9.534,1.575Z" style="fill-rule:nonzero;"/>
    <path d="M416.414,65.65l17.326,-0.663l0,5.14l-5.305,1.575l1.326,-1.161l-10.777,39.046l-10.777,-0l-9.533,-36.808l1.907,0.083l-10.529,36.725l-10.777,-0l-10.196,-38.631l1.16,0.994l-5.222,-1.16l-0,-5.14l18.984,-0.663l-0,5.14l-6.549,1.575l1.077,-0.912l7.71,32.828l-1.658,0l10.279,-38.051l10.363,-0.663l9.616,39.046l-1.492,-0l8.29,-32.911l0.995,0.994l-6.218,-1.243l0,-5.14Z" style="fill-rule:nonzero;"/>
    <path d="M473.532,94.499l6.052,0l-0.083,14.922l-42.776,0l-0,-5.14l7.875,-2.072l-1.409,2.072l-0,-47.667l1.409,2.073l-7.875,-1.907l-0,-5.14l16.497,-0.414l25.367,-0l-0,14.341l-6.135,0l-1.575,-8.456l1.99,1.493l-21.139,-0l1.658,-1.658l-0,20.89l-1.658,-1.658l20.476,0l-0,7.13l-20.476,-0l1.658,-1.824l-0,22.217l-1.658,-1.658l22.134,-0l-1.99,1.658l1.658,-9.202Z" style="fill-rule:nonzero;"/>
    <path d="M482.568,109.421l0,-5.14l6.964,-1.492l-2.487,1.409l13.181,-18.403l2.238,-0.332l13.347,-19.813l10.694,-0.663l-0,5.14l-7.047,1.741l2.902,-1.658l-12.767,17.491l-2.155,0.249l-14.176,21.471l-10.694,0Zm24.041,0l0,-5.14l5.637,-0.995l-0.58,1.327l-10.86,-15.502l-13.43,-18.819l2.073,1.741l-5.886,-1.243l-0,-5.14l19.564,-0.663l0,5.14l-5.803,1.243l0.746,-1.575l9.7,14.093l14.673,20.31l-1.824,-1.409l6.798,1.492l-0,5.14l-20.808,0Z" style="fill-rule:nonzero;"/>
</svg>
